/* XPM */
static char *a0540abebd184c8e983952d6cfa8ec0fPpaSUHOLzxBUECmy[] = {
/* columns rows colors chars-per-pixel */
"32 32 166 2 ",
"   c #131313",
".  c #232323",
"X  c #2B2B2B",
"o  c #333333",
"O  c #3A3735",
"+  c #3B3B3B",
"@  c #5F0905",
"#  c #5E0402",
"$  c #5B140A",
"%  c #6A0C06",
"&  c #710000",
"*  c #781F11",
"=  c #592C16",
"-  c #5F361C",
";  c #573B1C",
":  c #6D2712",
">  c #682D18",
",  c #643F1F",
"<  c #78341C",
"1  c #4D3820",
"2  c #46392E",
"3  c #513D22",
"4  c #4B3E34",
"5  c #5E4121",
"6  c #534339",
"7  c #664523",
"8  c #694725",
"9  c #6E4826",
"0  c #704725",
"q  c #704A27",
"w  c #744E2C",
"e  c #7A4F2B",
"r  c #7C512B",
"t  c #745234",
"y  c #7A5434",
"u  c #434343",
"i  c #4A4A4A",
"p  c #504640",
"a  c #5A5242",
"s  c #535353",
"d  c #5C5751",
"f  c #5C5C5C",
"g  c #61544B",
"h  c #7A5C41",
"j  c #645C56",
"k  c #746858",
"l  c #7A6C5C",
"z  c #636363",
"x  c #696969",
"c  c #766C61",
"v  c #7E6F61",
"b  c #737373",
"n  c #7F7870",
"m  c #7C7C7C",
"M  c #850000",
"N  c #911919",
"B  c #972817",
"V  c #B22D27",
"C  c #A7312F",
"Z  c #A1392C",
"A  c #AD3432",
"S  c #84542F",
"D  c #865730",
"F  c #885731",
"G  c #8B5932",
"H  c #8C5C3B",
"J  c #915430",
"K  c #935D35",
"L  c #9A5F37",
"P  c #BF5B3D",
"I  c #9B6239",
"U  c #A2653C",
"Y  c #A6693E",
"T  c #A9693F",
"R  c #935856",
"E  c #926749",
"W  c #9B6848",
"Q  c #8B6F5D",
"!  c #8A6B53",
"~  c #83715F",
"^  c #8D715D",
"/  c #967359",
"(  c #A76C40",
")  c #AC6B41",
"_  c #B16E43",
"`  c #B57145",
"'  c #BA7446",
"]  c #B5754D",
"[  c #BE7649",
"{  c #BE7849",
"}  c #A97554",
"|  c #BF7E54",
" . c #B07E5B",
".. c #807062",
"X. c #81776E",
"o. c #8E7869",
"O. c #907864",
"+. c #807B77",
"@. c #877A7A",
"#. c #C57A4B",
"$. c #CA7D4D",
"%. c #A6846E",
"&. c #A38673",
"*. c #BE8E71",
"=. c #B28F79",
"-. c #B2927F",
";. c #CF804F",
":. c #CC8152",
">. c #C2855F",
",. c #C88358",
"<. c #D28554",
"1. c #DC8654",
"2. c #DC8955",
"3. c #D48B5D",
"4. c #E68E58",
"5. c #EA8F59",
"6. c #EC915B",
"7. c #F0955E",
"8. c #C38E6E",
"9. c #C5906F",
"0. c #C19379",
"q. c #CC997A",
"w. c #D89C78",
"e. c #D99568",
"r. c #E89765",
"t. c #E49664",
"y. c #F29B66",
"u. c #F59F6A",
"i. c #FB9D64",
"p. c #F9A069",
"a. c #EFA475",
"s. c #E0A079",
"d. c #F5A676",
"f. c #FBA470",
"g. c #F2A779",
"h. c #F7AB7C",
"j. c #FBAB7A",
"k. c #848484",
"l. c #8D8783",
"z. c #8C8C8C",
"x. c #908787",
"c. c #998F89",
"v. c #968A83",
"b. c #99918C",
"n. c #949494",
"m. c #9E9894",
"M. c #999999",
"N. c #A6968C",
"B. c #B79581",
"V. c #BE9A83",
"C. c #A19690",
"Z. c #B7A59B",
"A. c #A4A4A4",
"S. c #AAAAAA",
"D. c #B4B4B4",
"F. c #BBBBBB",
"G. c #C39A82",
"H. c #C19A92",
"J. c #F3AD81",
"K. c #FCB78F",
"L. c #FBB285",
"P. c #F8BB97",
"I. c #C5C5C5",
"U. c #CBCBCB",
"Y. c LightGray",
"T. c #DCDCDC",
/* pixels */
"b M.M.M.M.M.M.M.M.k.z o f z.n.n.z.z.x i s m M.z.b f s i i s i u ",
"M.Y.S.D.D.M.z z z f f f s s s s s s s i i u i i u i n.T.T.Y.U.b ",
"n.S.A.z.A.z.x M.M.M.M.n.M.M.M.M.M.M.n.M.M.M.M.M.M.m u M.n.M.n.z ",
"m A.M.M.n.z.b M.M.M.M.M.n.+.b b b k.n.M.M.M.n.M.M.b i M.M.M.M.z ",
"x S.n.M.n.z.x M.M.M.M.n.x u o o o O i m M.M.M.M.M.m u M.M.M.M.f ",
"+ A.M.M.n.z.b M.M.M.M.*.Q 6 g x s u + o b M.M.M.M.m u m b x z X ",
"+ x z z x m x M.M.n.N.g.K.q.} g u u i o O z.M.M.M.m o + + X X   ",
"i o X X o f x n.M.M.q.g.P.J.8.6 4 O O X . k.M.M.M.m . o + + i u ",
"I.D.A.k.x b x M.M.M.&.y e.L.h.<._ H 2 . X m M.M.M.k.u i b A.U.m ",
"D.I.I.Y.Y.A.x M.M.Z.P.3.d.j.y.6.' ` 1 . i z.M.M.M.k.+ i F.I.S.k.",
"M.M.M.A.A.z.x M.M.0. .3.y.i.5.1.<.( 1 o k.M.M.M.M.k.+ u U.A.n.m ",
"M.M.M.M.M.z.x M.M.M.! t.i.7.$.[ ' r 5 d n.n.n.M.M.k.+ o T.M.M.b ",
"M.n.n.n.n.z.x n.M.M.w.p.f.4._ U <.I 7 +.n.M.M.M.M.k.+ o T.M.M.b ",
"s s z b b b x M.M.M.s.r.$.Y I :.u.:.I y n.M.M.M.M.k.o o S.f s u ",
". . . X X s x M.M.M.n.b./ I { 3.U H w q t c n.M.M.k.. . . . . . ",
"s i + + o s z n.M.M.M.c.| #.[ I G e L ( ( K H v M.k.u k.n.k.+ + ",
"s A.Y.T.T.A.f M.M.M.+.] { :.T r L ` ) U ) _ _ K X.k.s D.D.b X u ",
"i Y.A.A.A.m f M.M.l.y T T ' F T ` ) L S L L K F e k.i n.z.u . + ",
"s T.M.M.n.k.f M.M.^ F r I D T ` ` U 9 F ' _ U K 7 k.i M.M.i   i ",
"s A.m n.z.k.f M.n.E F e U ` { ` _ G w [ ' ' I L ; k.i n.M.i   u ",
"i f i m k.m f M.&.I y G ` { { Y L w / [ #.( U J 5 k.i M.M.i   i ",
"s i o o + s f M.X.I S I Y q I F t c b Z.P J T S a k.i n.n.i . + ",
"s s s O o s f M.W I S Y { K G < R b z k.A B U e k k.+ f f u . + ",
"b A.S.A.k.b f M.I I F _ { U H B V @.k.x.N M * 3 l k.. . . . X u ",
"z.T.I.I.I.M.f -.` I I I T $.' #.J Z C N M & @ ; v k.X o X o u O ",
"z.F.n.M.A.k.f m.:.,.T T $.1.$.1.[ S : M & # = 8 O.k.i n.M.A.m . ",
"k.F.M.n.M.m f M.N.m.=.#.;.` T ' _ S , % $ - 8 H %.k.i S.A.S.m . ",
"z.D.M.n.n.k.f M.n.M.m.*.;.#.{ ) I G F > 0 D U #.B.k.i n.M.M.m . ",
"z.D.M.z.z.m f M.M.M.M.M.B.9.5.5.4.$.' T ( [ 3.*.M.k.i n.M.M.z . ",
"z.D.z.z.n.m f M.M.M.M.M.M.M.0.-.M.M.-.0.*.-.M.M.M.k.+ f f f i X ",
"m A.m m m m X + + u u i i i i i i i i i i i i i i u . .   . . . ",
"i + o o X X X X O O . . . . X . . . . . X + + u u i + i i i u u "
};
