/* XPM */
static char *_e45416cd5b144a1d5548a4aa00ff8d8ATMn6nzU9VK86rQ5[] = {
/* columns rows colors chars-per-pixel */
"32 32 187 2 ",
"   c #0C0404",
".  c #140607",
"X  c #130C0A",
"o  c #1B0E0A",
"O  c #1B130C",
"+  c #1F190F",
"@  c #1C1814",
"#  c #21140B",
"$  c #231A12",
"%  c #2C1F18",
"&  c #25221E",
"*  c #31241D",
"=  c #2D2824",
"-  c #3A2722",
";  c #3C2E23",
":  c #3B3126",
">  c #44352D",
",  c #493A2F",
"<  c #4C3D35",
"1  c #4D3F3D",
"2  c #583734",
"3  c #573833",
"4  c #623D31",
"5  c #4B443C",
"6  c #59473D",
"7  c #56483E",
"8  c #74503D",
"9  c #494444",
"0  c #4F4845",
"q  c #564B48",
"w  c #614D48",
"e  c #6D594C",
"r  c #7B5A4C",
"t  c #685B59",
"y  c #7F5752",
"u  c #715E53",
"i  c #7E5D52",
"p  c #64615D",
"a  c #736255",
"s  c #7E6155",
"d  c #74645B",
"f  c #7C655C",
"g  c #7B695D",
"h  c #796D69",
"j  c #7F736B",
"k  c #805D4A",
"l  c #815E54",
"z  c #865E58",
"x  c #836353",
"c  c #886250",
"v  c #876D57",
"b  c #83645B",
"n  c #8A645C",
"m  c #846B5E",
"M  c #8B6A5D",
"N  c #82705F",
"B  c #8A725C",
"V  c #826760",
"C  c #8E6764",
"Z  c #836C63",
"A  c #8D6B63",
"S  c #926D66",
"D  c #956F68",
"F  c #8C7263",
"G  c #8C7B65",
"H  c #8C756A",
"J  c #85786E",
"K  c #8B7B6B",
"L  c #917366",
"P  c #93746B",
"I  c #99746B",
"U  c #927D6D",
"Y  c #9B7B6C",
"T  c #847C77",
"R  c #8B7E72",
"E  c #997771",
"W  c #937D72",
"Q  c #9C7C73",
"!  c #9E7D79",
"~  c #A17C75",
"^  c #A57E79",
"/  c #8D816B",
"(  c #95826C",
")  c #9A806B",
"_  c #8F8273",
"`  c #948375",
"'  c #9C8576",
"]  c #9D8B73",
"[  c #95867B",
"{  c #9C847A",
"}  c #9D8D7D",
"|  c #A38276",
" . c #A38D77",
".. c #A3837B",
"X. c #A9867E",
"o. c #A48A7C",
"O. c #A98A7E",
"+. c #A3917D",
"@. c #8F8782",
"#. c #928984",
"$. c #9D8C80",
"%. c #9F9186",
"&. c #9A928F",
"*. c #A98781",
"=. c #AD8C82",
"-. c #A78C88",
";. c #AE8E88",
":. c #B08E84",
">. c #B18C89",
",. c #A49484",
"<. c #AB9084",
"1. c #A59986",
"2. c #AB9985",
"3. c #A4978A",
"4. c #AC9489",
"5. c #A59A8B",
"6. c #AB9C8D",
"7. c #B29187",
"8. c #B39289",
"9. c #B4988C",
"0. c #AC9D92",
"q. c #B29E93",
"w. c #BF9D92",
"e. c #A9A08F",
"r. c #A7A093",
"t. c #ADA193",
"y. c #ACA49B",
"u. c #B3A596",
"i. c #B7A897",
"p. c #B3A59A",
"a. c #BAA69A",
"s. c #B5A99A",
"d. c #BAAB9D",
"f. c #BEB09E",
"g. c #B6ABA1",
"h. c #BAADA1",
"j. c #BBAEAC",
"k. c #BDB2A3",
"l. c #BCB5A9",
"z. c #C2ACA3",
"x. c #C1B5A6",
"c. c #C4B6AC",
"v. c #CBB5AD",
"b. c #C4BAAC",
"n. c #C9BCAE",
"m. c #C5BCB4",
"M. c #C9BEB3",
"N. c #C5BDB8",
"B. c #D1BFB5",
"V. c #C5C0AD",
"C. c #C6C1B4",
"Z. c #CCC3B4",
"A. c #CCC4B9",
"S. c #CECBBE",
"D. c #D0C3B5",
"F. c #D2C5BA",
"G. c #D3CABC",
"H. c #DBCCBE",
"J. c #D4CEC2",
"K. c #DACDC4",
"L. c #DACEC8",
"P. c #D6D2C5",
"I. c #DBD2C5",
"U. c #D7D5C9",
"Y. c #DCD5CA",
"T. c #DED9CC",
"R. c #DFDCD1",
"E. c #E1D5CC",
"W. c #E1DACF",
"Q. c #E3DED2",
"!. c #E9DFD5",
"~. c #E4E1D5",
"^. c #E8E1D6",
"/. c #E6E4D9",
"(. c #EAE4DC",
"). c #ECE9DE",
"_. c #F2E5DE",
"`. c #F2E8DF",
"'. c #ECE7E2",
"]. c #EDE9E2",
"[. c #F1E7E2",
"{. c #F2E9E4",
"}. c #F3EBE4",
"|. c #F5EEE6",
" X c #F1EEE8",
".X c #F6F1E6",
"XX c #FAF2E7",
/* pixels */
"S X.7.Y c ~ ^ :.:.x Q ....L 4 L Q i 4 Q w.C *.4 l Y 2 ~ y S 8.z ",
"C X.7.Y c Y ~ :.:.x | 4.6.H w W W V u ! ;.V *.6 z E 2 E y S 8.z ",
"x X.7.| c ~ ~ =.:.A z.L.E.A.k.T.J.J.A.T h 9 9 - w E 2 ! l S >.n ",
"x O.8.| n ~ ^ X.:.a.E.!.{.|.}..X|.|.Q.&.#.q 9 = & q 3 ..k I >.n ",
"l =.8.O.M ~ ~ O.a.E.!.'.{.}.|.XXXX X[.'.N.c.y.p 1 = > ..l D =.n ",
"l X.8.O.M ~ ~ =.M.E.!.(.'.{.}..X.X{.[.[.'.{.Q.0.T 0 < ! l D ^ n ",
"r ^ 8.O.M Y ~ z.E.W.Q.).'.'.{.{.}.[.}._.[.(.Q.Y.N.&.t A l ~ I n ",
"r | >.:.S Y ^ v.E.T./.(./.'.'.'.`._._._.(.Q.!.'.Q.C.@.H z ~ D C ",
"r ~ >.:.A E o.B.Q.Q.~.T.E.Q.!.!.!.Q.^.W.T.Y.Q.).).Q.A.y.{ ..C C ",
"r ~ 7.;.A I <.K.!.Q.P.c.x.D.H.H.H.E.E.G.n.d.c.Z.J.T.U.B.4...A C ",
"r E ;.;.L P h.(.!.F.d - * h 6.h.D.D.Z.p.o._ a , 6 3.J.K.c.-.V C ",
"r I >.<.P I L.(.!.0.: @ X $ $.c.H.V.x.o.K a $ o # 6 h.Y.U.q.b S ",
"r L ;.;.I U R.Q.T.W $ X X O J K.E.D.x. .W , $ . @ > [ Z.T.B.V P ",
"r L ;.7.E W !.Q.Q._ $     @ j Q.!.H.b.1.,.; O . o > o.Z.S.B.h P ",
"r M =.7.Q W !.Q.~.y.> X X : [ ).).(.Z.h.p.; % . o 6 d.D.M.J.V E ",
"r M o.7.' L !.Q.R.T._ 5 q g b.).{.{.J.M.h.a 7 * < R A.A.b.F.C E ",
"i b o.7.Q Z Y.Q.W.~.W.I.T.!.Q.).{.{.Q.D.Z.V.P.m.C.P.G.n.l.F.V Q ",
"x s ..<...m G.Q.Y.Y.T.Y.Q.~.~./.].'.(.F.Z.G.P.Z.C.V.V.b.b.c.f ! ",
"x b ..7.| F S.T.P.G.P.Y.Q.~.Q.~.^.!.(.D.G.G.G.C.l.i.i.d.N.q.z } ",
"b i ..4...H Y.W.G.Z.S.U.Q.~.Q.Q.H.B.H.n.Z.Z.Z.V.i.2.2.d.L.0.i ^ ",
"M s { 8.O.{ !.Q.Z.x.n.Y.~./.~.a.X.| ) ) f.D.Z.x.s.2. .i.W.g.V ! ",
"A s Q :...` T.(.G.f.C.~./.'./.x.F c 8 v f.G.Z.Z.x.6.o.p.E.5.h Z ",
"A e Z P m d b.(.T.S.Q.P.c./.].Y.9.k c  .b.V.i.i.c.6.6.d.P.5.[ [ ",
"a e e a a a r./.Q.T./.C.K k./.T.d.L 2.i.f.+.N +.d.u.6.b.F.0.-.3.",
"U g f _ _ R y.~.~.)./.S.V.] ` 2. .-.,.' G x ( 3.t.i.u.n.x.0.0.0.",
",.` T $.1.5.b.(.~.)./.S.V.s.6.K b s i v F Y ] 2.t.i.x.G.n.0.5.0.",
",.,.$.5.0.k.T.].~.~.~.U.C.s.e.t.6.<.<.O.Q ) ] 2.t.u.n.W.J.g.y.6.",
"3.3.5.5.t.n./.].~.~.~.U.S.V.+./ G B B F F U ` +.e.u.c.Y.K.g.s.g.",
"5.5.t.t.i.n./.]./.~.R.T.U.J.l.,./ G G ` U ( ` ,.6.d.M.K.K.h.p.m.",
"3.5.t.d.k.m.(. X).~.~.T.U.S.U.J.e.1.,.} } } } 1.u.c.A.K.Y.g.j.m.",
"3.e.t.d.h.c.). X.X)./.~.U.J.U.J.k.k.u.1.,.1.1.6.i.b.A.K.L.j.m.N.",
"1.r.p.p.h.b.). X).).(.~.R.P.J.V.V.m.f.1.6.5.r.p.k.b.B.K.E.N.N.N."
};
