
/* XPM */
static char *result[] = {
/* columns rows colors chars-per-pixel */
"32 32 10 1 ",
"  c #797979",
". c #646464",
"X c #515151",
"o c #494B3F",
"O c #3D3D43",
"+ c #393C36",
"@ c #2F2F37",
"# c #2A2A2A",
"$ c gray12",
"% c gray4",
/* pixels */
". ..X..XXXOOO@OO......XOOXXOXXX.",
" ..X.XXXXOXXOOOX.X...X.XXXOOXXXX",
".XXXXO@@OOO@@OOOX. XXXXXOXO@XOOX",
"OXOO@@O@@OOOO@@@@X..XXXOX@@@OXOO",
"X...  ...X.@%$+##@@XO@@@@%$OOOOX",
".XX.. .X..@%$#++$##@@OXO$##$@@OO",
"OXO@@ ..XO$%#++#+o+$%@  .$ .OXXO",
"O@@%%@XXXXO$+$#+o+##%%.  ...X.XX",
"@@%#$#XXOOOX$$%$#+$%$  ....XXOOX",
"OX.%# XOOXOOX.$$%%%  . ..XX.XXX@",
"     .XXXO@@@@X.   .XX.X.X.XX.X.",
".  .XX..XXXO@OOO.X.OOX@@@XXOXX..",
". ....XXX.O@OOOXXXXX@%%$#@@@OOXX",
". X..X.XX@@@@OOOOXXX%$#o+#@OOXOX",
"X .XXXO@@%#+$@@O..X.X$++o+.@O.XX",
"X.XXOO@%%$++#$#@O..X.X$#$ XOXXXX",
"XXOXXO%%+o+o+#$$OXXX..   XOOOXXX",
"XOOOXO%$#+oo$#$X..X..XXOO@@OOOOX",
"OXOO@@O%$#+##  .XOXXXOXXOO@@@@O@",
"OOOOOO@.%$#  .XXOXXXOXOXO@@%%$@O",
"..XOOXXO  .XOXXXXOOO@@OOOO%$o+$ ",
".X. ..OO@@OXXXOO@O@@@O@OOX$#+$ .",
"....O@@@@O  .  .XXOOO@@OXO.$  ..",
"X..O@$#+o@@@O.. .X.O@+$@OXX.. ..",
".XX@%$+o+$$%%@....X@#oo%%@OXX...",
"X.XO%#oo###$%%..X.X@+o+#$%XX.X..",
"OXOO.%#++$%%.O@X.XOO#$#$%XO@OXXO",
"OOO@O.$+%  .@%%@@XOOX%%%X@@@@@OO",
".   .XX  XOO%$+#$OOX   .OOO@OXX ",
"   ......OXXO#$$OX  .XX.XXOXX...",
". ...X.XX.XXXXO@XX. ...XXXXX....",
".  ...XX.XXOXO@@X.. ....X..X.X.X"
};