/* XPM */
static char *ba5a5149ec0c47b9a722f7002e10a602Cr4lMmDEhX91sz7T[] = {
/* columns rows colors chars-per-pixel */
"32 32 6 1 ",
"  c #E3826C",
". c #D67B5B",
"X c #C87456",
"o c #B26247",
"O c #A75A40",
"+ c #9A5038",
/* pixels */
"  ..    ..  .. O  ....    ..   O",
" oooXX X   XXoOO OOOooX   XXoXoO",
".ooXX X   XXoOO+.OOooX   XXoXoo+",
".oXX X   XXoOOO+.OooX   XXoXoOo+",
" XX X   XXoOOOo+ ooX   XXoXoOooO",
" XXX   XXoOOOoX+ oX   XXooooooXO",
" XX X XXoOOOoX + XXX XXoooOooXX+",
" X XXXXoOOOoX  + XX XXoooOooXX +",
" XXoXXoOOOoX   O.X XXooOOOoXX  +",
" XoXXoOOOoXoX  O.XXXooOOOoXX   +",
".ooXoOOOoooX   O XXooOOOoXX    O",
".oooOoOoooX   XO XooOOOoXX    XO",
".ooOoOoooX   XX+.oooOOoXX    XXO",
".oooOoooXXX XXX+.ooOOoXX    XXXO",
" ooOoooXXX XXXX+ oOooXX    XXXX+",
"OO++++++OO++++++OO++OO++++++OO++",
"    ..  ....   O  ....    .... O",
" XXXXooooooXX  O XXXX   X XXXoOO",
".XXXoooOooXX  XO.XXX   X XXooOOO",
".XXoooOooXX  XXO.XX     XXoOOOOO",
" XooOOooXX  XXoO.X     XXoOOOOoO",
" ooOOOoXX  XXoOO.     XXoOOOOoXO",
" oOOOoXX  XXoOO+.    XXoOOOOoX +",
" OOOoXX   XoOOo+.   XXoOoOOoX  +",
".OOoXX   XoOOoX+.  XXoooOOoX   O",
".OoXX   XoOOoXo+. XXooooOoX    O",
".oXX   XoOooXoX+ XXooooOoX X   +",
".XX   XoOooXoXX+ XooooOOX X   X+",
".X   XoOooXXXXXO.ooooOoX X   XX+",
".   XooooXXXXXXO.oooOoXXX   XXX+",
"   XooooXXXXXXX+ ooooXXX X XXXXO",
"++OOOOOO++++OO++OOOOOOOO++++OOOO"
};