/* XPM */
static char *dummy[]={
"32 32 3 1",
"a c #181818",
"# c #323232",
". c #ff001d",
"................................",
"..############################..",
".a.##########################.#.",
".aa.########################.##.",
".aaa.######################.###.",
".aaaa......................####.",
".aaaa.####################.####.",
".aaaa.aaaaaaaaaaaaaaa##a##.####.",
".aaaa.aaaaaaaaaaaaaaaaaa##.####.",
".aaaa.aaaaaaaaaaaaa#aaaaa#.####.",
".aaaa.aaaaaaaaaaaaaaaa#aa#.####.",
".aaaa.aaaaaaaaaaaaaaaaaaa#.####.",
".aaaa.aaaaaaaaaaaaaaaaaaa#.####.",
".aaaa.aaaaaaaaaaaaaaaaaaa#.####.",
".aaaa.aaaaaaaaaaaaaaaaaaa#.####.",
".aaaa.aaaaaaaaaaaaaaaaaaa#.####.",
".aaaa.aaaaaaaaaaaaaaaaaaa#.####.",
".aaaa.aaaaaaaaaaaaaaaaaaa#.####.",
".aaaa.aaaaaaaaaaaaaaaaaaa#.####.",
".aaaa.aaaaaaaaaaaaaaaaaaa#.####.",
".aaaa.aaaaaaaaaaaaaaaaaaa#.####.",
".aaaa.aaaaaaaaaaaaaaaaaaa#.####.",
".aaaa.aaaaaaaaaaaaaaaaaaa#.####.",
".aaaa.aaaaaaaaaaaaaaaaaaa#.####.",
".aaaa.aaaaaaaaaaaaaaaaaa##.####.",
".aaaa.aaaaaaaaaaaaaaaaaa##.####.",
".aaaa......................####.",
".aaa.aaaaaaaaaaaaaaaaaaaaaa.###.",
".aa.aaaaaaaaaaaaaaaaaaaaaaaa.##.",
".a.aaaaaaaaaaaaaaaaaaaaaaaaaa.#.",
"..aaaaaaaaaaaaaaaaaaaaaaaaaaaa..",
"................................"};