/* XPM */
static char *result[] = {
/* columns rows colors chars-per-pixel */
"32 32 6 1 ",
"  c #F6FABD",
". c #EEF6B4",
"X c #DEE6A4",
"o c #D5DA94",
"O c #CDC68B",
"+ c #C5BE8B",
/* pixels */
"XXXoXoX..X.XoX.X.X+O+OooXo.oOOoo",
"XoXooXX  ...XoX..oO+OooXooX.oooX",
"XXoX.X .X.X.  ..oo+OooXXXX.X.X.X",
".ooXX..XOOoX..  XoOOoXoXoXX.  .X",
"XX.X.XooO+OOoX. .XooXXXoX.oXX...",
" .  XXoO++OoOoX...XXXXX.XoXooX .",
"OooX..XoOO++OoooXX.XooOo.XooX.Xo",
"+OOOoX.XoOO+OOXoX.XooOOOo .XX.oO",
"O+OoOo .XXooOooo..oO++Oooo . o+o",
"OOoooo. . oXooXX XO+O+OoOoX o+O+",
"oOOOoX.  ..XX.X..XOOOoOOoX XOOoO",
"XoOoXX .. ..X . .XoOoOoooX.XOooo",
"oooX...ooOoX .   .XoOooXX. XoXoX",
"XXX..XooO+OoX.X ....oXX...X.XoXX",
".X..oO+O++O+oX.X ..X..Xo+oOX .o.",
"X. .O+O+OOoooX X. . XXoOO+Oo....",
"...oooOOoOOoX.Xo+oX.oO+O+O+Oo. .",
"  .XoOoOOooX.XoOO+oXXOO+OOOoOX. ",
" . .XooooX.X..O+Oooo.ooOOOoooXX.",
".....XOo.XoX .oOoOoo.XoXooOoXo.X",
"o+oOo..XXoo. oXoOooXX.XooXoXoXX.",
"OO++Oo..XoX .X.oooX.XXXXooXXXX.o",
"++O+oOo..X.X .X.XXXXo+ooXX.X.XoO",
"OoooOooX. ...  X.X.o+++OoXo. .oO",
"oOoooXX. .XooOo.X.o+O+Ooo.XoX.Xo",
"ooXoX..X .ooOoOoo.+O+OooXooX. ..",
".XoX..X .oOO+O+OOXooOooXXXo.X. .",
" .X..X..oXO+O++O+oXoooXoXXX. .XX",
"Oo.X.. XOoO+++OOoo.XXXXXX. .XoOo",
"O+o..  XoooOoOooooX..X. .X.XXOO+",
"oOOoX...XoXooooXo.XoOoOoX.XoO+OO",
"OoOXoX.X XooXXoXXXooO++OoX.oO++o"
};